<?xml version="1.0" encoding="UTF-8"?><svg xmlns="http://www.w3.org/2000/svg" xmlns:xlink="http://www.w3.org/1999/xlink" width="375" zoomAndPan="magnify" viewBox="0 0 375 374.999991" height="374.999991" preserveAspectRatio="xMidYMid meet" version="1.0"><defs><clipPath id="clip-0"><path d="M 14 32 L 361.226562 32 L 361.226562 375 L 14 375 Z M 14 32 " clip-rule="nonzero"/></clipPath></defs><g clip-path="url(#clip-0)"><path fill="rgb(100%, 100%, 100%)" d="M 187.597656 375.027344 C 91.917969 375.027344 14.074219 297.246094 14.074219 201.640625 C 14.074219 126.09375 64.601562 57.882812 136.945312 35.773438 L 148.980469 32.097656 L 148.980469 95.394531 L 143.328125 97.8125 C 101.613281 115.652344 74.65625 156.40625 74.65625 201.640625 C 74.65625 263.863281 125.320312 314.484375 187.597656 314.484375 C 249.859375 314.484375 300.515625 263.863281 300.515625 201.640625 C 300.515625 156.8125 273.886719 116.203125 232.679688 98.183594 L 227.105469 95.746094 L 227.105469 32.28125 L 239.183594 36.046875 C 312.105469 58.792969 361.101562 125.339844 361.101562 201.640625 C 361.101562 297.246094 283.269531 375.027344 187.597656 375.027344 Z M 130.355469 57.8125 C 72.269531 81.054688 32.695312 138.472656 32.695312 201.640625 C 32.695312 286.984375 102.183594 356.421875 187.597656 356.421875 C 273 356.421875 342.484375 286.984375 342.484375 201.640625 C 342.484375 137.835938 304.097656 81.664062 245.722656 58.125 L 245.722656 83.730469 C 290.519531 105.839844 319.132812 151.46875 319.132812 201.640625 C 319.132812 274.121094 260.128906 333.089844 187.597656 333.089844 C 115.054688 333.089844 56.035156 274.121094 56.035156 201.640625 C 56.035156 151.019531 85.007812 105.214844 130.355469 83.269531 Z M 130.355469 57.8125 " fill-opacity="1" fill-rule="nonzero"/></g><path fill="rgb(100%, 100%, 100%)" d="M 215.261719 162.585938 L 159.902344 162.585938 L 159.902344 0 L 215.261719 0 Z M 178.523438 143.972656 L 196.644531 143.972656 L 196.644531 18.613281 L 178.523438 18.613281 Z M 178.523438 143.972656 " fill-opacity="1" fill-rule="nonzero"/></svg>