<svg width="322" height="30" viewBox="0 0 322 30" fill="none" xmlns="http://www.w3.org/2000/svg">
<rect width="322" height="30" rx="15" fill="white"/>
<path d="M145.24 14.62C145.24 12.3267 145.613 10.54 146.36 9.26C147.107 7.96667 148.413 7.32 150.28 7.32C152.133 7.32 153.433 7.96667 154.18 9.26C154.927 10.54 155.3 12.3267 155.3 14.62C155.3 16.9533 154.927 18.7667 154.18 20.06C153.433 21.3533 152.133 22 150.28 22C148.413 22 147.107 21.3533 146.36 20.06C145.613 18.7667 145.24 16.9533 145.24 14.62ZM153.5 14.62C153.5 13.46 153.42 12.48 153.26 11.68C153.113 10.8667 152.8 10.2133 152.32 9.72C151.853 9.22667 151.173 8.98 150.28 8.98C149.373 8.98 148.68 9.22667 148.2 9.72C147.733 10.2133 147.42 10.8667 147.26 11.68C147.113 12.48 147.04 13.46 147.04 14.62C147.04 15.82 147.113 16.8267 147.26 17.64C147.42 18.4533 147.733 19.1067 148.2 19.6C148.68 20.0933 149.373 20.34 150.28 20.34C151.173 20.34 151.853 20.0933 152.32 19.6C152.8 19.1067 153.113 18.4533 153.26 17.64C153.42 16.8267 153.5 15.82 153.5 14.62ZM157.399 10.8C157.399 9.89333 157.672 9.17333 158.219 8.64C158.765 8.09333 159.465 7.82 160.319 7.82C161.172 7.82 161.872 8.09333 162.419 8.64C162.965 9.17333 163.239 9.89333 163.239 10.8C163.239 11.72 162.965 12.4533 162.419 13C161.872 13.5333 161.172 13.8 160.319 13.8C159.465 13.8 158.765 13.5333 158.219 13C157.672 12.4533 157.399 11.72 157.399 10.8ZM169.079 8.04L160.979 22H159.179L167.279 8.04H169.079ZM160.319 8.94C159.865 8.94 159.505 9.1 159.239 9.42C158.985 9.72667 158.859 10.1867 158.859 10.8C158.859 11.4133 158.985 11.88 159.239 12.2C159.505 12.52 159.865 12.68 160.319 12.68C160.772 12.68 161.132 12.52 161.399 12.2C161.665 11.8667 161.799 11.4 161.799 10.8C161.799 10.1867 161.665 9.72667 161.399 9.42C161.132 9.1 160.772 8.94 160.319 8.94ZM165.059 19.24C165.059 18.32 165.332 17.5933 165.879 17.06C166.425 16.5133 167.125 16.24 167.979 16.24C168.832 16.24 169.525 16.5133 170.059 17.06C170.605 17.5933 170.879 18.32 170.879 19.24C170.879 20.1467 170.605 20.8733 170.059 21.42C169.525 21.9667 168.832 22.24 167.979 22.24C167.125 22.24 166.425 21.9733 165.879 21.44C165.332 20.8933 165.059 20.16 165.059 19.24ZM167.959 17.38C167.505 17.38 167.145 17.54 166.879 17.86C166.612 18.1667 166.479 18.6267 166.479 19.24C166.479 19.84 166.612 20.3 166.879 20.62C167.145 20.9267 167.505 21.08 167.959 21.08C168.412 21.08 168.772 20.9267 169.039 20.62C169.305 20.3 169.439 19.84 169.439 19.24C169.439 18.6267 169.305 18.1667 169.039 17.86C168.772 17.54 168.412 17.38 167.959 17.38Z" fill="black"/>
</svg>
