<svg width="52" height="50" viewBox="0 0 52 50" fill="none" xmlns="http://www.w3.org/2000/svg">
<path fill-rule="evenodd" clip-rule="evenodd" d="M13 25C13 24.5856 13.1712 24.1882 13.476 23.8952C13.7807 23.6022 14.194 23.4375 14.625 23.4375H33.4523L26.4745 16.7313C26.1694 16.4379 25.9979 16.04 25.9979 15.6251C25.9979 15.2101 26.1694 14.8122 26.4745 14.5188C26.7796 14.2254 27.1935 14.0606 27.625 14.0606C28.0565 14.0606 28.4704 14.2254 28.7755 14.5188L38.5255 23.8938C38.6768 24.0389 38.7969 24.2114 38.8788 24.4012C38.9607 24.591 39.0029 24.7945 39.0029 25C39.0029 25.2056 38.9607 25.4091 38.8788 25.5989C38.7969 25.7887 38.6768 25.9612 38.5255 26.1063L28.7755 35.4813C28.4704 35.7747 28.0565 35.9395 27.625 35.9395C27.1935 35.9395 26.7796 35.7747 26.4745 35.4813C26.1694 35.1879 25.9979 34.79 25.9979 34.375C25.9979 33.9601 26.1694 33.5622 26.4745 33.2688L33.4523 26.5625H14.625C14.194 26.5625 13.7807 26.3979 13.476 26.1049C13.1712 25.8119 13 25.4144 13 25Z" fill="#F8F8F8"/>
</svg>
