<svg width="324" height="31" viewBox="0 0 324 31" fill="none" xmlns="http://www.w3.org/2000/svg">
<rect x="2" width="322" height="30" rx="15" fill="white"/>
<rect width="218" height="30" rx="15" fill="#FFDE59"/>
<path d="M152.14 9.96L146.58 23H144.74L150.38 10.14H142.66V8.58H152.14V9.96ZM163.378 10.12H156.358V14.68C156.665 14.2533 157.118 13.9067 157.718 13.64C158.318 13.36 158.965 13.22 159.658 13.22C160.765 13.22 161.665 13.4533 162.358 13.92C163.051 14.3733 163.545 14.9667 163.838 15.7C164.145 16.42 164.298 17.1867 164.298 18C164.298 18.96 164.118 19.82 163.758 20.58C163.398 21.34 162.845 21.94 162.098 22.38C161.365 22.82 160.451 23.04 159.358 23.04C157.958 23.04 156.825 22.68 155.958 21.96C155.091 21.24 154.565 20.28 154.378 19.08H156.158C156.331 19.84 156.698 20.4333 157.258 20.86C157.818 21.2867 158.525 21.5 159.378 21.5C160.431 21.5 161.225 21.1867 161.758 20.56C162.291 19.92 162.558 19.08 162.558 18.04C162.558 17 162.291 16.2 161.758 15.64C161.225 15.0667 160.438 14.78 159.398 14.78C158.691 14.78 158.071 14.9533 157.538 15.3C157.018 15.6333 156.638 16.0933 156.398 16.68H154.678V8.52H163.378V10.12ZM166.317 11.8C166.317 10.8933 166.59 10.1733 167.137 9.64C167.683 9.09333 168.383 8.82 169.237 8.82C170.09 8.82 170.79 9.09333 171.337 9.64C171.883 10.1733 172.157 10.8933 172.157 11.8C172.157 12.72 171.883 13.4533 171.337 14C170.79 14.5333 170.09 14.8 169.237 14.8C168.383 14.8 167.683 14.5333 167.137 14C166.59 13.4533 166.317 12.72 166.317 11.8ZM177.997 9.04L169.897 23H168.097L176.197 9.04H177.997ZM169.237 9.94C168.783 9.94 168.423 10.1 168.157 10.42C167.903 10.7267 167.777 11.1867 167.777 11.8C167.777 12.4133 167.903 12.88 168.157 13.2C168.423 13.52 168.783 13.68 169.237 13.68C169.69 13.68 170.05 13.52 170.317 13.2C170.583 12.8667 170.717 12.4 170.717 11.8C170.717 11.1867 170.583 10.7267 170.317 10.42C170.05 10.1 169.69 9.94 169.237 9.94ZM173.977 20.24C173.977 19.32 174.25 18.5933 174.797 18.06C175.343 17.5133 176.043 17.24 176.897 17.24C177.75 17.24 178.443 17.5133 178.977 18.06C179.523 18.5933 179.797 19.32 179.797 20.24C179.797 21.1467 179.523 21.8733 178.977 22.42C178.443 22.9667 177.75 23.24 176.897 23.24C176.043 23.24 175.343 22.9733 174.797 22.44C174.25 21.8933 173.977 21.16 173.977 20.24ZM176.877 18.38C176.423 18.38 176.063 18.54 175.797 18.86C175.53 19.1667 175.397 19.6267 175.397 20.24C175.397 20.84 175.53 21.3 175.797 21.62C176.063 21.9267 176.423 22.08 176.877 22.08C177.33 22.08 177.69 21.9267 177.957 21.62C178.223 21.3 178.357 20.84 178.357 20.24C178.357 19.6267 178.223 19.1667 177.957 18.86C177.69 18.54 177.33 18.38 176.877 18.38Z" fill="black"/>
</svg>
