<svg width="251" height="251" viewBox="0 0 251 251" fill="none" xmlns="http://www.w3.org/2000/svg">
<circle cx="128" cy="127" r="123" fill="white"/>
<path d="M118.745 118.18L109.015 141H105.795L115.665 118.495H102.155V115.765H118.745V118.18ZM138.411 118.46H126.126V126.44C126.663 125.693 127.456 125.087 128.506 124.62C129.556 124.13 130.688 123.885 131.901 123.885C133.838 123.885 135.413 124.293 136.626 125.11C137.84 125.903 138.703 126.942 139.216 128.225C139.753 129.485 140.021 130.827 140.021 132.25C140.021 133.93 139.706 135.435 139.076 136.765C138.446 138.095 137.478 139.145 136.171 139.915C134.888 140.685 133.29 141.07 131.376 141.07C128.926 141.07 126.943 140.44 125.426 139.18C123.91 137.92 122.988 136.24 122.661 134.14H125.776C126.08 135.47 126.721 136.508 127.701 137.255C128.681 138.002 129.918 138.375 131.411 138.375C133.255 138.375 134.643 137.827 135.576 136.73C136.51 135.61 136.976 134.14 136.976 132.32C136.976 130.5 136.51 129.1 135.576 128.12C134.643 127.117 133.266 126.615 131.446 126.615C130.21 126.615 129.125 126.918 128.191 127.525C127.281 128.108 126.616 128.913 126.196 129.94H123.186V115.66H138.411V118.46ZM143.554 121.4C143.554 119.813 144.032 118.553 144.989 117.62C145.946 116.663 147.171 116.185 148.664 116.185C150.157 116.185 151.382 116.663 152.339 117.62C153.296 118.553 153.774 119.813 153.774 121.4C153.774 123.01 153.296 124.293 152.339 125.25C151.382 126.183 150.157 126.65 148.664 126.65C147.171 126.65 145.946 126.183 144.989 125.25C144.032 124.293 143.554 123.01 143.554 121.4ZM163.994 116.57L149.819 141H146.669L160.844 116.57H163.994ZM148.664 118.145C147.871 118.145 147.241 118.425 146.774 118.985C146.331 119.522 146.109 120.327 146.109 121.4C146.109 122.473 146.331 123.29 146.774 123.85C147.241 124.41 147.871 124.69 148.664 124.69C149.457 124.69 150.087 124.41 150.554 123.85C151.021 123.267 151.254 122.45 151.254 121.4C151.254 120.327 151.021 119.522 150.554 118.985C150.087 118.425 149.457 118.145 148.664 118.145ZM156.959 136.17C156.959 134.56 157.437 133.288 158.394 132.355C159.351 131.398 160.576 130.92 162.069 130.92C163.562 130.92 164.776 131.398 165.709 132.355C166.666 133.288 167.144 134.56 167.144 136.17C167.144 137.757 166.666 139.028 165.709 139.985C164.776 140.942 163.562 141.42 162.069 141.42C160.576 141.42 159.351 140.953 158.394 140.02C157.437 139.063 156.959 137.78 156.959 136.17ZM162.034 132.915C161.241 132.915 160.611 133.195 160.144 133.755C159.677 134.292 159.444 135.097 159.444 136.17C159.444 137.22 159.677 138.025 160.144 138.585C160.611 139.122 161.241 139.39 162.034 139.39C162.827 139.39 163.457 139.122 163.924 138.585C164.391 138.025 164.624 137.22 164.624 136.17C164.624 135.097 164.391 134.292 163.924 133.755C163.457 133.195 162.827 132.915 162.034 132.915Z" fill="black"/>
<path d="M244.814 125.5C248.23 125.5 251.016 128.272 250.848 131.684C249.576 157.472 240.375 182.297 224.425 202.727C207.204 224.787 183.104 240.457 155.955 247.249C128.806 254.04 100.166 251.562 74.5873 240.209C49.0082 228.856 27.9576 209.279 14.7811 184.59C1.60467 159.9 -2.94162 131.515 1.86482 103.946C6.67126 76.3761 20.5546 51.204 41.3084 32.43C62.0622 13.656 88.4956 2.35737 116.407 0.329812C142.258 -1.54804 168.004 4.62645 190.135 17.924C193.063 19.6836 193.816 23.5405 191.914 26.3788C190.012 29.217 186.177 29.9602 183.239 28.2164C163.408 16.4457 140.403 10.9914 117.304 12.6694C92.1436 14.497 68.3161 24.6818 49.6082 41.605C30.9004 58.5282 18.3857 81.2188 14.053 106.07C9.72043 130.922 13.8185 156.509 25.696 178.764C37.5735 201.02 56.5489 218.667 79.6064 228.901C102.664 239.135 128.48 241.368 152.953 235.246C177.425 229.125 199.15 214.999 214.673 195.114C228.924 176.858 237.199 154.71 238.459 131.683C238.646 128.272 241.398 125.5 244.814 125.5Z" fill="#FF45AB"/>
</svg>
