<svg width="322" height="31" viewBox="0 0 322 31" fill="none" xmlns="http://www.w3.org/2000/svg">
<rect width="322" height="30" rx="15" fill="white"/>
<rect width="80" height="30" rx="15" fill="#FFDE59"/>
<path d="M145.02 21.54C146.713 20.18 148.04 19.0667 149 18.2C149.96 17.32 150.767 16.4067 151.42 15.46C152.087 14.5 152.42 13.56 152.42 12.64C152.42 11.7733 152.207 11.0933 151.78 10.6C151.367 10.0933 150.693 9.84 149.76 9.84C148.853 9.84 148.147 10.1267 147.64 10.7C147.147 11.26 146.88 12.0133 146.84 12.96H145.08C145.133 11.4667 145.587 10.3133 146.44 9.5C147.293 8.68667 148.393 8.28 149.74 8.28C151.113 8.28 152.2 8.66 153 9.42C153.813 10.18 154.22 11.2267 154.22 12.56C154.22 13.6667 153.887 14.7467 153.22 15.8C152.567 16.84 151.82 17.76 150.98 18.56C150.14 19.3467 149.067 20.2667 147.76 21.32H154.64V22.84H145.02V21.54ZM165.964 10.12H158.944V14.68C159.251 14.2533 159.704 13.9067 160.304 13.64C160.904 13.36 161.551 13.22 162.244 13.22C163.351 13.22 164.251 13.4533 164.944 13.92C165.637 14.3733 166.131 14.9667 166.424 15.7C166.731 16.42 166.884 17.1867 166.884 18C166.884 18.96 166.704 19.82 166.344 20.58C165.984 21.34 165.431 21.94 164.684 22.38C163.951 22.82 163.037 23.04 161.944 23.04C160.544 23.04 159.411 22.68 158.544 21.96C157.677 21.24 157.151 20.28 156.964 19.08H158.744C158.917 19.84 159.284 20.4333 159.844 20.86C160.404 21.2867 161.111 21.5 161.964 21.5C163.017 21.5 163.811 21.1867 164.344 20.56C164.877 19.92 165.144 19.08 165.144 18.04C165.144 17 164.877 16.2 164.344 15.64C163.811 15.0667 163.024 14.78 161.984 14.78C161.277 14.78 160.657 14.9533 160.124 15.3C159.604 15.6333 159.224 16.0933 158.984 16.68H157.264V8.52H165.964V10.12ZM168.903 11.8C168.903 10.8933 169.176 10.1733 169.723 9.64C170.269 9.09333 170.969 8.82 171.823 8.82C172.676 8.82 173.376 9.09333 173.923 9.64C174.469 10.1733 174.743 10.8933 174.743 11.8C174.743 12.72 174.469 13.4533 173.923 14C173.376 14.5333 172.676 14.8 171.823 14.8C170.969 14.8 170.269 14.5333 169.723 14C169.176 13.4533 168.903 12.72 168.903 11.8ZM180.583 9.04L172.483 23H170.683L178.783 9.04H180.583ZM171.823 9.94C171.369 9.94 171.009 10.1 170.743 10.42C170.489 10.7267 170.363 11.1867 170.363 11.8C170.363 12.4133 170.489 12.88 170.743 13.2C171.009 13.52 171.369 13.68 171.823 13.68C172.276 13.68 172.636 13.52 172.903 13.2C173.169 12.8667 173.303 12.4 173.303 11.8C173.303 11.1867 173.169 10.7267 172.903 10.42C172.636 10.1 172.276 9.94 171.823 9.94ZM176.563 20.24C176.563 19.32 176.836 18.5933 177.383 18.06C177.929 17.5133 178.629 17.24 179.483 17.24C180.336 17.24 181.029 17.5133 181.563 18.06C182.109 18.5933 182.383 19.32 182.383 20.24C182.383 21.1467 182.109 21.8733 181.563 22.42C181.029 22.9667 180.336 23.24 179.483 23.24C178.629 23.24 177.929 22.9733 177.383 22.44C176.836 21.8933 176.563 21.16 176.563 20.24ZM179.463 18.38C179.009 18.38 178.649 18.54 178.383 18.86C178.116 19.1667 177.983 19.6267 177.983 20.24C177.983 20.84 178.116 21.3 178.383 21.62C178.649 21.9267 179.009 22.08 179.463 22.08C179.916 22.08 180.276 21.9267 180.543 21.62C180.809 21.3 180.943 20.84 180.943 20.24C180.943 19.6267 180.809 19.1667 180.543 18.86C180.276 18.54 179.916 18.38 179.463 18.38Z" fill="black"/>
</svg>
